<svg xmlns="http://www.w3.org/2000/svg" width="1280" height="360" viewBox="0 0 1280 360" fill="none">
  <defs>
    <linearGradient id="bg" x1="0" y1="0" x2="1280" y2="360" gradientUnits="userSpaceOnUse">
      <stop offset="0" stop-color="#F6F1E8"/>
      <stop offset="1" stop-color="#EAEFF7"/>
    </linearGradient>
    <linearGradient id="card" x1="0" y1="0" x2="1" y2="1">
      <stop offset="0" stop-color="#0F172A"/>
      <stop offset="1" stop-color="#1E293B"/>
    </linearGradient>
    <filter id="shadow" x="-20%" y="-20%" width="140%" height="140%">
      <feDropShadow dx="0" dy="18" stdDeviation="18" flood-color="#0F172A" flood-opacity="0.16"/>
    </filter>
  </defs>

  <rect width="1280" height="360" rx="28" fill="url(#bg)"/>
  <g opacity="0.28" stroke="#C8D3E3" stroke-width="1">
    <path d="M80 56H1200"/>
    <path d="M80 112H1200"/>
    <path d="M80 168H1200"/>
    <path d="M80 224H1200"/>
    <path d="M80 280H1200"/>
    <path d="M160 32V328"/>
    <path d="M320 32V328"/>
    <path d="M480 32V328"/>
    <path d="M640 32V328"/>
    <path d="M800 32V328"/>
    <path d="M960 32V328"/>
    <path d="M1120 32V328"/>
  </g>

  <g transform="translate(76 66)">
    <rect x="0" y="22" width="20" height="20" fill="#0F172A"/>
    <rect x="20" y="0" width="20" height="20" fill="#0F172A"/>
    <rect x="20" y="22" width="20" height="20" fill="#14B8A6"/>
    <rect x="20" y="44" width="20" height="20" fill="#0F172A"/>
    <rect x="40" y="22" width="20" height="20" fill="#0F172A"/>

    <rect x="70" y="0" width="20" height="20" fill="#F97316"/>
    <rect x="90" y="0" width="20" height="20" fill="#F97316"/>
    <rect x="70" y="22" width="20" height="20" fill="#0F172A"/>
    <rect x="90" y="22" width="20" height="20" fill="#14B8A6"/>
    <rect x="110" y="22" width="20" height="20" fill="#0F172A"/>
    <rect x="70" y="44" width="20" height="20" fill="#0F172A"/>
    <rect x="110" y="44" width="20" height="20" fill="#0F172A"/>
  </g>

  <text x="76" y="176" fill="#0F172A" font-size="64" font-weight="800" font-family="Segoe UI, Arial, sans-serif">
    OpenSpecPowers
  </text>
  <text x="78" y="214" fill="#334155" font-size="22" font-weight="500" font-family="Segoe UI, Arial, sans-serif">
    Spec-driven AI development for real repos, not demo-only workflows.
  </text>
  <text x="78" y="252" fill="#475569" font-size="18" font-weight="500" font-family="Segoe UI, Arial, sans-serif">
    Plan changes. Implement with evidence. Archive with clean spec history.
  </text>

  <g filter="url(#shadow)">
    <rect x="748" y="50" width="456" height="252" rx="24" fill="url(#card)"/>
  </g>
  <rect x="774" y="78" width="164" height="30" rx="15" fill="#14B8A6" fill-opacity="0.18"/>
  <text x="792" y="98" fill="#99F6E4" font-size="14" font-weight="700" font-family="Segoe UI, Arial, sans-serif">
    DEFAULT QUICK PATH
  </text>

  <rect x="774" y="128" width="404" height="50" rx="16" fill="#132338" stroke="#233754"/>
  <text x="798" y="160" fill="#E2E8F0" font-size="22" font-weight="700" font-family="Consolas, Monaco, monospace">
    /opsp:propose
  </text>
  <text x="995" y="160" fill="#7DD3FC" font-size="16" font-weight="600" font-family="Segoe UI, Arial, sans-serif">
    idea to artifacts
  </text>

  <rect x="774" y="188" width="404" height="50" rx="16" fill="#132338" stroke="#233754"/>
  <text x="798" y="220" fill="#E2E8F0" font-size="22" font-weight="700" font-family="Consolas, Monaco, monospace">
    /opsp:apply
  </text>
  <text x="1009" y="220" fill="#7DD3FC" font-size="16" font-weight="600" font-family="Segoe UI, Arial, sans-serif">
    tasks to code
  </text>

  <rect x="774" y="248" width="404" height="50" rx="16" fill="#132338" stroke="#233754"/>
  <text x="798" y="280" fill="#E2E8F0" font-size="22" font-weight="700" font-family="Consolas, Monaco, monospace">
    /opsp:archive
  </text>
  <text x="995" y="280" fill="#7DD3FC" font-size="16" font-weight="600" font-family="Segoe UI, Arial, sans-serif">
    merge and history
  </text>
</svg>
